<svg xmlns="http://www.w3.org/2000/svg" viewBox="0 0 1040 560" font-family="Segoe UI, Helvetica, Arial, sans-serif">
  <defs>
    <marker id="ar" markerWidth="9" markerHeight="9" refX="7" refY="3" orient="auto"><path d="M0,0 L7,3 L0,6 Z" fill="#2563eb"/></marker>
    <marker id="arS" markerWidth="9" markerHeight="9" refX="2" refY="3" orient="auto"><path d="M7,0 L0,3 L7,6 Z" fill="#2563eb"/></marker>
    <marker id="arP" markerWidth="10" markerHeight="10" refX="7" refY="3" orient="auto"><path d="M0,0 L7,3 L0,6 Z" fill="#7c3aed"/></marker>
    <marker id="arPS" markerWidth="10" markerHeight="10" refX="2" refY="3" orient="auto"><path d="M7,0 L0,3 L7,6 Z" fill="#7c3aed"/></marker>
  </defs>
  <rect width="1040" height="560" fill="#ffffff"/>
  <text x="520" y="40" text-anchor="middle" font-size="22" font-weight="700" fill="#0f172a">Lab 1 &#183; Cross-Region Peering (RPC)</text>
  <text x="520" y="62" text-anchor="middle" font-size="13" fill="#64748b">Remote Peering Connection joins the two regions&#8217; DRGs over the Oracle backbone</text>

  <!-- Ashburn region -->
  <rect x="30" y="86" width="468" height="436" rx="10" fill="#f8fafc" stroke="#cbd5e1" stroke-width="1.5"/>
  <rect x="30" y="86" width="232" height="26" rx="6" fill="#e2e8f0"/>
  <text x="46" y="104" font-size="13" font-weight="600" fill="#334155">OCI &#8212; US East (Ashburn)</text>

  <rect x="56" y="140" width="200" height="118" rx="8" fill="#ffffff" stroke="#64748b" stroke-width="1.5"/>
  <text x="70" y="163" font-size="13" font-weight="700" fill="#1e293b">advnet-hub-vcn</text>
  <text x="70" y="181" font-size="11" font-family="monospace" fill="#475569">10.0.0.0/16</text>
  <rect x="70" y="194" width="172" height="50" rx="5" fill="#eff6ff" stroke="#93c5fd"/>
  <text x="80" y="213" font-size="10.5" font-weight="600" fill="#1e3a8a">Private subnet</text>
  <text x="80" y="230" font-size="10.5" font-family="monospace" fill="#475569">10.0.1.0/24</text>

  <rect x="56" y="290" width="200" height="118" rx="8" fill="#ffffff" stroke="#64748b" stroke-width="1.5"/>
  <text x="70" y="313" font-size="13" font-weight="700" fill="#1e293b">advnet-spoke1-vcn</text>
  <text x="70" y="331" font-size="11" font-family="monospace" fill="#475569">10.1.0.0/16</text>
  <rect x="70" y="344" width="172" height="50" rx="5" fill="#eff6ff" stroke="#93c5fd"/>
  <text x="80" y="363" font-size="10.5" font-weight="600" fill="#1e3a8a">Private subnet</text>
  <text x="80" y="380" font-size="10.5" font-family="monospace" fill="#475569">10.1.0.0/24</text>

  <rect x="300" y="248" width="110" height="78" rx="10" fill="#2563eb"/>
  <text x="355" y="280" text-anchor="middle" font-size="14" font-weight="700" fill="#ffffff">DRG</text>
  <text x="355" y="300" text-anchor="middle" font-size="9.5" font-family="monospace" fill="#dbeafe">advnet-drg-iad</text>

  <rect x="430" y="258" width="56" height="58" rx="8" fill="#ede9fe" stroke="#7c3aed" stroke-width="1.5"/>
  <text x="458" y="282" text-anchor="middle" font-size="11" font-weight="700" fill="#5b21b6">RPC</text>
  <text x="458" y="299" text-anchor="middle" font-size="7.5" font-family="monospace" fill="#6d28d9">iad</text>

  <line x1="256" y1="200" x2="300" y2="270" stroke="#2563eb" stroke-width="2.5" marker-end="url(#ar)" marker-start="url(#arS)"/>
  <line x1="256" y1="360" x2="300" y2="300" stroke="#2563eb" stroke-width="2.5" marker-end="url(#ar)" marker-start="url(#arS)"/>
  <line x1="410" y1="287" x2="430" y2="287" stroke="#7c3aed" stroke-width="2"/>

  <!-- Phoenix region -->
  <rect x="542" y="86" width="468" height="436" rx="10" fill="#f8fafc" stroke="#cbd5e1" stroke-width="1.5"/>
  <rect x="542" y="86" width="236" height="26" rx="6" fill="#e2e8f0"/>
  <text x="558" y="104" font-size="13" font-weight="600" fill="#334155">OCI &#8212; US West (Phoenix)</text>

  <rect x="554" y="258" width="56" height="58" rx="8" fill="#ede9fe" stroke="#7c3aed" stroke-width="1.5"/>
  <text x="582" y="282" text-anchor="middle" font-size="11" font-weight="700" fill="#5b21b6">RPC</text>
  <text x="582" y="299" text-anchor="middle" font-size="7.5" font-family="monospace" fill="#6d28d9">phx</text>

  <rect x="630" y="248" width="110" height="78" rx="10" fill="#2563eb"/>
  <text x="685" y="280" text-anchor="middle" font-size="14" font-weight="700" fill="#ffffff">DRG</text>
  <text x="685" y="300" text-anchor="middle" font-size="9.5" font-family="monospace" fill="#dbeafe">advnet-drg-phx</text>

  <rect x="784" y="206" width="206" height="162" rx="8" fill="#ffffff" stroke="#64748b" stroke-width="1.5"/>
  <text x="798" y="229" font-size="13" font-weight="700" fill="#1e293b">advnet-remotespoke-vcn</text>
  <text x="798" y="247" font-size="11" font-family="monospace" fill="#475569">10.2.0.0/16</text>
  <rect x="798" y="260" width="178" height="92" rx="5" fill="#eff6ff" stroke="#93c5fd"/>
  <text x="808" y="279" font-size="10.5" font-weight="600" fill="#1e3a8a">Private subnet</text>
  <text x="808" y="296" font-size="10.5" font-family="monospace" fill="#475569">10.2.0.0/24</text>
  <rect x="808" y="306" width="158" height="38" rx="5" fill="#ffffff" stroke="#64748b"/>
  <text x="887" y="324" text-anchor="middle" font-size="10.5" font-weight="600" fill="#1e293b">advnet-remotespoke-vm</text>
  <text x="887" y="338" text-anchor="middle" font-size="9" fill="#64748b">Always-Free A1.Flex &#183; no public IP</text>

  <line x1="610" y1="287" x2="630" y2="287" stroke="#7c3aed" stroke-width="2"/>
  <line x1="740" y1="287" x2="784" y2="287" stroke="#2563eb" stroke-width="2.5" marker-end="url(#ar)" marker-start="url(#arS)"/>

  <!-- RPC cross-region link -->
  <line x1="486" y1="287" x2="554" y2="287" stroke="#7c3aed" stroke-width="3" marker-end="url(#arP)" marker-start="url(#arPS)"/>
  <rect x="455" y="330" width="130" height="44" rx="8" fill="#f5f3ff" stroke="#c4b5fd"/>
  <text x="520" y="349" text-anchor="middle" font-size="10.5" font-weight="700" fill="#5b21b6">RPC &#183; PEERED</text>
  <text x="520" y="365" text-anchor="middle" font-size="9" fill="#6d28d9">Oracle backbone (private)</text>
</svg>
